<?xml version="1.0" encoding="utf-8"?>
<!-- Generator: Adobe Illustrator 26.0.3, SVG Export Plug-In . SVG Version: 6.00 Build 0)  -->
<svg version="1.1" id="Calque_1" xmlns="http://www.w3.org/2000/svg" xmlns:xlink="http://www.w3.org/1999/xlink" x="0px" y="0px"
	 viewBox="0 0 15.7 9.2" style="enable-background:new 0 0 15.7 9.2;" xml:space="preserve">
<style type="text/css">
	.st0{fill:#599ABC;}
</style>
<g id="down-arrow" transform="translate(0 -127.244)">
	<g id="_x31_0_34_" transform="translate(0 127.244)">
		<g id="Group_20">
			<path id="Path_24" class="st0" d="M15.5,0.2c-0.3-0.3-0.7-0.3-0.9,0c0,0,0,0,0,0L7.8,7.6L1.1,0.2c-0.3-0.3-0.7-0.3-0.9,0
				c0,0,0,0,0,0c-0.3,0.3-0.3,0.7,0,0.9L7.4,9c0.1,0.1,0.3,0.2,0.5,0.2C8,9.2,8.2,9.1,8.4,9l7.2-7.9C15.8,0.9,15.8,0.5,15.5,0.2z"/>
		</g>
	</g>
</g>
</svg>
