<?xml version="1.0" encoding="utf-8"?>
<!-- Generator: Adobe Illustrator 26.0.3, SVG Export Plug-In . SVG Version: 6.00 Build 0)  -->
<svg version="1.1" id="Calque_1" xmlns="http://www.w3.org/2000/svg" xmlns:xlink="http://www.w3.org/1999/xlink" x="0px" y="0px"
	 viewBox="0 0 231 70" style="enable-background:new 0 0 231 70;" xml:space="preserve">
<style type="text/css">
	.st0{fill:#599ABC;}
	.st1{fill:#4B4B4A;}
	.st2{fill:#DFDF62;}
</style>
<g>
	<g>
		<path class="st0" d="M97.5,56.5c0-0.2,0.1-0.3,0.3-0.3c0.2,0,0.3,0.1,0.3,0.3v8.6c0,0.2-0.1,0.3-0.3,0.3c-0.2,0-0.3-0.1-0.3-0.3
			V56.5z"/>
		<path class="st0" d="M101.6,56.5c0-0.2,0.1-0.3,0.3-0.3c0.2,0,0.3,0.1,0.3,0.3v8.6c0,0.2-0.1,0.3-0.3,0.3c-0.2,0-0.3-0.1-0.3-0.3
			V56.5z"/>
		<path class="st0" d="M105,56.5c0-0.2,0.1-0.3,0.3-0.3c0.2,0,0.3,0.1,0.3,0.3v8.6c0,0.2-0.1,0.3-0.3,0.3c-0.2,0-0.3-0.1-0.3-0.3
			V56.5z"/>
		<path class="st0" d="M108.2,59.2c0-0.2,0.1-0.3,0.3-0.3c0.2,0,0.3,0.1,0.3,0.3v3.5c0,1.1,0.9,2,2,2c1.1,0,2-0.9,2-2v-3.5
			c0-0.2,0.2-0.3,0.3-0.3c0.2,0,0.3,0.1,0.3,0.3v3.5c0,1.5-1.2,2.6-2.7,2.6c-1.5,0-2.6-1.2-2.6-2.6V59.2z"/>
		<path class="st0" d="M116.1,64.1c0.1-0.1,0.3-0.2,0.4,0c0.4,0.3,1.2,0.8,2,0.8c0.5,0,0.9-0.2,1.2-0.4c0.3-0.2,0.5-0.5,0.5-0.8
			c0-0.3-0.1-0.5-0.5-0.8c-0.3-0.2-0.7-0.4-1.4-0.5l0,0c-0.6-0.1-1.1-0.2-1.5-0.5c-0.4-0.2-0.7-0.7-0.7-1.2c0-0.5,0.3-1,0.7-1.3
			c0.4-0.3,0.9-0.4,1.6-0.4c0.8,0,1.4,0.4,1.9,0.7c0.1,0.1,0.2,0.3,0.1,0.4c-0.1,0.1-0.3,0.2-0.4,0.1c-0.5-0.3-1-0.6-1.6-0.6
			c-0.5,0-1,0.1-1.2,0.4c-0.3,0.2-0.4,0.5-0.4,0.7c0,0.3,0.1,0.4,0.4,0.6c0.3,0.2,0.7,0.4,1.3,0.4h0c0.6,0.1,1.1,0.3,1.6,0.5
			c0.4,0.3,0.7,0.8,0.7,1.3c0,0.5-0.3,1-0.7,1.3c-0.4,0.3-1,0.5-1.6,0.5c-1,0-1.9-0.5-2.4-0.9C116,64.4,116,64.2,116.1,64.1z"/>
		<path class="st0" d="M125.6,59.3c0,0.2-0.2,0.3-0.3,0.3h-0.8v4.7c0,0.3,0.3,0.5,0.5,0.5c0.2,0,0.3,0.2,0.3,0.3
			c0,0.2-0.2,0.3-0.3,0.3c-0.6,0-1.1-0.5-1.1-1.1v-4.7H123c-0.3,0-0.3-0.2-0.3-0.3s0-0.3,0.3-0.3h0.8v-2.4c0-0.2,0.2-0.3,0.3-0.3
			c0.2,0,0.3,0.2,0.3,0.3v2.4h0.8C125.5,58.9,125.6,59.1,125.6,59.3z"/>
		<path class="st0" d="M127.9,59.3c0-0.2,0.1-0.3,0.3-0.3c0.2,0,0.3,0.1,0.3,0.3v1.4c0-0.1,0.1-0.1,0.1-0.2c0.5-0.8,1.3-1.6,2.6-1.6
			c0.2,0,0.3,0.1,0.3,0.3c0,0.2-0.1,0.3-0.3,0.3c-0.8,0-1.4,0.5-1.9,1.1c-0.4,0.6-0.7,1.2-0.8,1.5c0,0.1,0,0.1,0,0.1v2.8
			c0,0.2-0.1,0.3-0.3,0.3c-0.2,0-0.3-0.1-0.3-0.3V59.3z"/>
		<path class="st0" d="M138.9,59.3v5.8c0,0.2-0.1,0.3-0.3,0.3c-0.2,0-0.3-0.1-0.3-0.3v-1c-0.6,0.8-1.4,1.3-2.4,1.3
			c-1.7,0-3.1-1.5-3.1-3.2s1.4-3.2,3.1-3.2c1,0,1.9,0.5,2.4,1.3v-1c0-0.2,0.1-0.3,0.3-0.3C138.7,58.9,138.9,59.1,138.9,59.3z
			 M138.3,62.2c0-1.5-1.1-2.6-2.4-2.6c-1.3,0-2.4,1.2-2.4,2.6c0,1.5,1.1,2.6,2.4,2.6C137.2,64.8,138.3,63.6,138.3,62.2z"/>
		<path class="st0" d="M144,59.3c0,0.2-0.2,0.3-0.3,0.3h-0.8v4.7c0,0.3,0.3,0.5,0.5,0.5c0.2,0,0.3,0.2,0.3,0.3
			c0,0.2-0.2,0.3-0.3,0.3c-0.6,0-1.1-0.5-1.1-1.1v-4.7h-0.8c-0.3,0-0.3-0.2-0.3-0.3s0-0.3,0.3-0.3h0.8v-2.4c0-0.2,0.2-0.3,0.3-0.3
			c0.2,0,0.3,0.2,0.3,0.3v2.4h0.8C143.9,58.9,144,59.1,144,59.3z"/>
		<path class="st0" d="M146.2,62.2c0-1.8,1.4-3.3,3.1-3.3c1.7,0,3,1.3,3.1,3v0v0c0,0.2-0.1,0.3-0.3,0.3h-5.3
			c0.1,1.4,1.2,2.5,2.5,2.5c0.9,0,1.7-0.4,2.1-1.2c0.1-0.2,0.3-0.2,0.4-0.1c0.1,0.1,0.2,0.3,0.1,0.4c-0.6,0.9-1.5,1.5-2.6,1.5
			C147.6,65.4,146.2,64,146.2,62.2z M146.9,61.7h4.9c-0.2-1.2-1.2-2.1-2.4-2.1C148.1,59.6,147.1,60.4,146.9,61.7z"/>
		<path class="st0" d="M158.5,64.1c0.1-0.1,0.3-0.2,0.4,0c0.4,0.3,1.2,0.8,2,0.8c0.5,0,0.9-0.2,1.2-0.4c0.3-0.2,0.5-0.5,0.5-0.8
			c0-0.3-0.1-0.5-0.5-0.8c-0.3-0.2-0.7-0.4-1.4-0.5l0,0c-0.6-0.1-1.1-0.2-1.5-0.5c-0.4-0.2-0.7-0.7-0.7-1.2c0-0.5,0.3-1,0.7-1.3
			c0.4-0.3,0.9-0.4,1.6-0.4c0.8,0,1.4,0.4,1.9,0.7c0.1,0.1,0.2,0.3,0.1,0.4c-0.1,0.1-0.3,0.2-0.4,0.1c-0.5-0.3-1-0.6-1.6-0.6
			c-0.5,0-1,0.1-1.2,0.4c-0.3,0.2-0.4,0.5-0.4,0.7c0,0.3,0.1,0.4,0.4,0.6c0.3,0.2,0.7,0.4,1.3,0.4h0c0.6,0.1,1.1,0.3,1.6,0.5
			c0.4,0.3,0.7,0.8,0.7,1.3c0,0.5-0.3,1-0.7,1.3c-0.4,0.3-1,0.5-1.6,0.5c-1,0-1.9-0.5-2.4-0.9C158.4,64.4,158.4,64.2,158.5,64.1z"/>
		<path class="st0" d="M165.1,62.2c0-1.8,1.5-3.2,3.3-3.2c0.8,0,1.5,0.3,2.1,0.7c0.1,0.1,0.2,0.3,0,0.4c-0.1,0.1-0.3,0.2-0.4,0.1
			c-0.5-0.4-1-0.6-1.7-0.6c-1.5,0-2.7,1.2-2.7,2.6c0,1.5,1.2,2.6,2.7,2.6c0.6,0,1.2-0.2,1.7-0.6c0.1-0.1,0.3-0.1,0.4,0.1
			c0.1,0.1,0.1,0.3-0.1,0.5c-0.5,0.4-1.3,0.7-2,0.7C166.6,65.4,165.1,64,165.1,62.2z"/>
		<path class="st0" d="M173.3,57.1c0-0.2,0.1-0.3,0.3-0.3c0.2,0,0.3,0.1,0.3,0.3v0.3c0,0.2-0.1,0.3-0.3,0.3c-0.2,0-0.3-0.2-0.3-0.3
			V57.1z M173.3,59.3c0-0.2,0.1-0.3,0.3-0.3c0.2,0,0.3,0.1,0.3,0.3v5.8c0,0.2-0.1,0.3-0.3,0.3c-0.2,0-0.3-0.1-0.3-0.3V59.3z"/>
		<path class="st0" d="M176.6,62.2c0-1.8,1.4-3.3,3.1-3.3c1.7,0,3,1.3,3.1,3v0v0c0,0.2-0.1,0.3-0.3,0.3h-5.3
			c0.1,1.4,1.2,2.5,2.5,2.5c0.9,0,1.7-0.4,2.1-1.2c0.1-0.2,0.3-0.2,0.4-0.1c0.1,0.1,0.2,0.3,0.1,0.4c-0.6,0.9-1.5,1.5-2.6,1.5
			C178,65.4,176.6,64,176.6,62.2z M177.3,61.7h4.9c-0.2-1.2-1.2-2.1-2.4-2.1C178.6,59.6,177.5,60.4,177.3,61.7z"/>
		<path class="st0" d="M189.9,61.6c0-1.1-0.9-2-2-2c-1.1,0-2,0.9-2,2v3.5v0.1c0,0.1,0,0.1-0.1,0.1c-0.1,0.1-0.1,0.1-0.2,0.1h-0.1
			c-0.1,0-0.2-0.1-0.2-0.2c0,0,0,0,0,0c0,0,0,0,0,0v-0.1v-3.5v-0.1v-2.2c0-0.2,0.1-0.3,0.3-0.3c0.2,0,0.3,0.1,0.3,0.3v0.6
			c0.5-0.6,1.2-0.9,2-0.9c1.5,0,2.6,1.2,2.6,2.6v3.5c0,0.2-0.1,0.3-0.3,0.3c-0.2,0-0.3-0.1-0.3-0.3V61.6z"/>
		<path class="st0" d="M193,62.2c0-1.8,1.5-3.2,3.3-3.2c0.8,0,1.5,0.3,2.1,0.7c0.1,0.1,0.2,0.3,0,0.4c-0.1,0.1-0.3,0.2-0.4,0.1
			c-0.5-0.4-1-0.6-1.7-0.6c-1.5,0-2.7,1.2-2.7,2.6c0,1.5,1.2,2.6,2.7,2.6c0.6,0,1.2-0.2,1.7-0.6c0.1-0.1,0.3-0.1,0.4,0.1
			c0.1,0.1,0.1,0.3-0.1,0.5c-0.5,0.4-1.3,0.7-2,0.7C194.5,65.4,193,64,193,62.2z"/>
		<path class="st0" d="M200.5,62.2c0-1.8,1.4-3.3,3.1-3.3c1.7,0,3,1.3,3.1,3v0v0c0,0.2-0.1,0.3-0.3,0.3h-5.3
			c0.1,1.4,1.2,2.5,2.5,2.5c0.9,0,1.7-0.4,2.1-1.2c0.1-0.2,0.3-0.2,0.4-0.1c0.1,0.1,0.2,0.3,0.1,0.4c-0.6,0.9-1.5,1.5-2.6,1.5
			C201.9,65.4,200.5,64,200.5,62.2z M201.2,61.7h4.9c-0.2-1.2-1.2-2.1-2.4-2.1C202.4,59.6,201.4,60.4,201.2,61.7z"/>
	</g>
	<g>
		<g>
			<path class="st1" d="M91.9,31.7h-6.3v16.9h-3V31.7h-6.3V29h15.6V31.7z"/>
			<path class="st1" d="M109.9,29v19.6h-3v-8.6h-9.5v8.6h-3V29h3v8.2h9.5V29H109.9z"/>
			<path class="st1" d="M114.2,48.5V29h8.2c0.9,0,1.6,0.2,2.4,0.6c0.7,0.4,1.3,0.9,1.8,1.4c0.5,0.6,0.9,1.3,1.2,2
				c0.3,0.8,0.4,1.5,0.4,2.3c0,0.7-0.1,1.3-0.3,1.9c-0.2,0.6-0.4,1.2-0.7,1.7c-0.3,0.5-0.7,1-1.2,1.3c-0.5,0.4-1,0.7-1.5,0.8
				l4.4,7.4h-3.4l-4.1-6.8h-4.4v6.8H114.2z M117.1,39h5.2c0.4,0,0.8-0.1,1.2-0.3c0.3-0.2,0.6-0.5,0.9-0.8c0.2-0.3,0.4-0.7,0.6-1.2
				c0.1-0.4,0.2-0.9,0.2-1.4c0-0.5-0.1-1-0.3-1.4c-0.2-0.4-0.4-0.8-0.7-1.2c-0.3-0.3-0.6-0.6-1-0.8c-0.4-0.2-0.7-0.3-1.1-0.3h-5.1
				V39z"/>
			<path class="st1" d="M144.7,45.8v2.7h-12.9V29h12.7v2.7h-9.7v5.6h8.4v2.6h-8.4v6H144.7z"/>
			<path class="st1" d="M155.2,48.7c-1.3,0-2.6-0.3-3.7-0.8c-1.1-0.6-2.1-1.3-2.9-2.2c-0.8-0.9-1.4-2-1.8-3.2
				c-0.4-1.2-0.7-2.4-0.7-3.7c0-1.3,0.2-2.6,0.7-3.8c0.5-1.2,1.1-2.3,1.9-3.2c0.8-0.9,1.8-1.7,2.9-2.2c1.1-0.5,2.3-0.8,3.6-0.8
				c1.3,0,2.6,0.3,3.7,0.9c1.1,0.6,2.1,1.3,2.8,2.3c0.8,0.9,1.4,2,1.8,3.2s0.7,2.4,0.7,3.6c0,1.3-0.2,2.6-0.7,3.8
				c-0.5,1.2-1.1,2.2-1.9,3.2c-0.8,0.9-1.8,1.6-2.9,2.2C157.7,48.4,156.5,48.7,155.2,48.7z M149.2,38.7c0,0.9,0.1,1.8,0.4,2.7
				c0.3,0.9,0.7,1.6,1.2,2.3c0.5,0.7,1.2,1.2,1.9,1.6c0.7,0.4,1.6,0.6,2.5,0.6c1,0,1.8-0.2,2.5-0.6c0.7-0.4,1.4-1,1.9-1.6
				c0.5-0.7,0.9-1.4,1.2-2.3c0.3-0.8,0.4-1.7,0.4-2.6c0-0.9-0.1-1.8-0.4-2.7c-0.3-0.9-0.7-1.6-1.2-2.3c-0.5-0.7-1.2-1.2-1.9-1.6
				c-0.7-0.4-1.6-0.6-2.5-0.6c-1,0-1.8,0.2-2.6,0.6c-0.7,0.4-1.4,1-1.9,1.6c-0.5,0.7-0.9,1.4-1.2,2.3
				C149.3,37,149.2,37.9,149.2,38.7z"/>
			<path class="st1" d="M170.3,34.7v13.8h-3V29h2.3l10.8,14.1V29h3v19.6H181L170.3,34.7z"/>
			<path class="st1" d="M187.7,48.5V29h3v19.6H187.7z"/>
			<path class="st1" d="M197.9,34.7v13.8h-3V29h2.3l10.8,14.1V29h3v19.6h-2.5L197.9,34.7z"/>
			<path class="st1" d="M228.3,45.8v2.7h-12.9V29h12.7v2.7h-9.7v5.6h8.4v2.6h-8.4v6H228.3z"/>
		</g>
		<g>
			<line class="st1" x1="131.7" y1="25.4" x2="144.6" y2="25.4"/>
			<rect x="131.7" y="24.1" class="st1" width="12.8" height="2.7"/>
		</g>
	</g>
	<g>
		<path class="st2" d="M34.7,15.7c-1.1,0.6-2.4,0.9-3.8,0.9c-1.4,0-2.7-0.3-3.9-1l3.9-4.6L34.7,15.7z M30.9,5.2l6.7,8.1
			c1.1-1.4,1.7-3.2,1.7-5.1c0-4.6-3.8-8.4-8.4-8.4c-4.6,0-8.4,3.8-8.4,8.4c0,1.9,0.6,3.6,1.7,5L30.9,5.2z"/>
		<path class="st2" d="M8.8,53.4c1.3-0.9,2.9-1.4,4.6-1.4c1.7,0,3.3,0.5,4.6,1.4c-0.1,0.2-0.3,0.4-0.4,0.7c-2.9,4.3-4.2,4.5-4.1,4.5
			c0,0-1.3-0.2-4.2-4.5C9.1,53.8,8.9,53.6,8.8,53.4z M20.6,56.3c-2.8,4.1-5.1,6.1-7.2,6.1c-2.1,0-4.4-1.9-7.2-6.1c0,0,0,0,0-0.1
			C5.4,57.4,5,58.9,5,60.4c0,4.6,3.8,8.4,8.4,8.4c4.6,0,8.4-3.8,8.4-8.4C21.8,58.9,21.4,57.4,20.6,56.3
			C20.6,56.2,20.6,56.2,20.6,56.3z"/>
		<path class="st2" d="M55.3,56.3c0.7,1.2,1.1,2.6,1.1,4.2c0,4.6-3.8,8.4-8.4,8.4c-4.6,0-8.4-3.8-8.4-8.4c0-1.6,0.4-3.1,1.2-4.4
			c0,0.1,0.1,0.1,0.1,0.2c2.7,4.1,5,6.1,7.1,6.1c0,0,0,0,0,0C50.2,62.3,52.5,60.4,55.3,56.3z M44,54c2.8,4.3,4.1,4.5,4.1,4.5
			c0,0,1.3-0.2,4.2-4.5c0.1-0.2,0.3-0.4,0.4-0.6c-1.3-0.9-3-1.4-4.7-1.4c-1.6,0-3.2,0.5-4.5,1.3C43.7,53.6,43.8,53.8,44,54z"/>
		<path class="st0" d="M55.3,56.3c-2.8,4.1-5.1,6-7.2,6c0,0,0,0,0,0c-2.1,0-4.4-2-7.1-6.1c0-0.1-0.1-0.1-0.1-0.2
			c0.7-1.1,1.6-2,2.7-2.7c0.1,0.2,0.3,0.5,0.5,0.7c2.8,4.3,4.1,4.5,4.1,4.5c0,0,1.3-0.2,4.2-4.5c0.1-0.2,0.3-0.4,0.4-0.6
			C53.8,54.2,54.7,55.2,55.3,56.3z M20.6,56.3C20.6,56.2,20.6,56.2,20.6,56.3c-0.6-1.2-1.5-2.2-2.6-2.9c-0.1,0.2-0.3,0.4-0.4,0.7
			c-2.9,4.3-4.2,4.5-4.1,4.5c0,0-1.3-0.2-4.2-4.5c-0.1-0.2-0.3-0.4-0.4-0.6c-1.1,0.7-2,1.7-2.7,2.8c0,0,0,0,0,0.1
			c2.8,4.1,5.1,6.1,7.2,6.1C15.5,62.3,17.8,60.4,20.6,56.3z M24.1,13.3c0.8,1,1.7,1.8,2.9,2.4l3.9-4.6l3.8,4.6
			c1.1-0.6,2.1-1.4,2.9-2.4l-6.7-8.1L24.1,13.3z"/>
		<path class="st0" d="M6.1,56.2C4.3,53.5,3,50.9,3,50.8l-0.2-0.4V18.6h3.8v30.9c0.4,0.7,1.2,2.2,2.3,3.9
			C7.7,54.1,6.8,55.1,6.1,56.2z M24.1,13.3l-3.9,4.7v31.6c-0.4,0.7-1.2,2.2-2.3,3.9c1.1,0.7,2,1.7,2.7,2.8c1.8-2.6,3.1-5.2,3.1-5.3
			l0.2-0.4V19.3l3-3.6C25.9,15.1,24.9,14.3,24.1,13.3z M43.5,53.3c-1-1.6-1.8-3.1-2.2-3.8V17.9l-3.8-4.6c-0.8,1-1.7,1.8-2.9,2.4
			l2.9,3.6v31.1l0.2,0.4c0.1,0.1,1.3,2.6,3,5.2C41.5,55,42.4,54,43.5,53.3z M55.1,18.6v30.9c-0.4,0.7-1.3,2.3-2.3,3.9
			c1.1,0.7,2,1.7,2.6,2.8c0,0,0,0,0,0c1.8-2.7,3.2-5.3,3.3-5.4l0.2-0.4V18.6H55.1z"/>
	</g>
</g>
</svg>
