<svg width="150" height="121" viewBox="0 0 150 121" fill="none" xmlns="http://www.w3.org/2000/svg">
<g clip-path="url(#clip0_63_2)">
<path d="M83.1736 8.08546C83.1758 9.62933 82.7183 11.1392 81.8588 12.424C80.9994 13.7087 79.7767 14.7107 78.3454 15.303C76.9141 15.8954 75.3386 16.0516 73.8183 15.7517C72.2979 15.4519 70.9009 14.7096 69.8042 13.6187C68.7075 12.5278 67.9602 11.1373 67.657 9.62328C67.3538 8.10924 67.5083 6.53961 68.1009 5.11305C68.6935 3.68648 69.6976 2.46711 70.9861 1.60915C72.2747 0.751182 73.7897 0.293223 75.3396 0.293221C76.3679 0.291739 77.3863 0.492212 78.3367 0.883147C79.2871 1.27408 80.1508 1.84777 80.8784 2.5715C81.606 3.29523 82.1832 4.15473 82.577 5.10086C82.9709 6.047 83.1736 7.06121 83.1736 8.08546Z" fill="#F6F6F6"/>
<path d="M75.3396 16.171C73.7347 16.1687 72.1665 15.6926 70.8332 14.8028C69.4998 13.913 68.4612 12.6495 67.8486 11.1718C67.236 9.69422 67.0769 8.06885 67.3913 6.50117C67.7058 4.93349 68.4798 3.49383 69.6154 2.36419C70.751 1.23454 72.1973 0.465598 73.7716 0.154532C75.3458 -0.156535 76.9773 0.00427547 78.4598 0.616575C79.9423 1.22887 81.2094 2.26523 82.1008 3.59463C82.9922 4.92403 83.4679 6.48678 83.4679 8.08545C83.468 9.1482 83.2576 10.2005 82.849 11.1822C82.4404 12.1639 81.8415 13.0558 81.0865 13.8067C80.3316 14.5577 79.4355 15.153 78.4494 15.5587C77.4632 15.9643 76.4065 16.1724 75.3396 16.171ZM75.3396 0.57514C73.8489 0.57737 72.3923 1.01972 71.1539 1.84633C69.9156 2.67293 68.9509 3.84665 68.382 5.21918C67.8131 6.59171 67.6654 8.10143 67.9576 9.55755C68.2498 11.0137 68.9688 12.3509 70.0236 13.4001C71.0785 14.4493 72.422 15.1635 73.8842 15.4523C75.3464 15.7412 76.8618 15.5918 78.2389 15.0231C79.6159 14.4543 80.7927 13.4917 81.6207 12.2569C82.4487 11.022 82.8906 9.57038 82.8906 8.08545C82.8906 7.09823 82.6952 6.12072 82.3156 5.20879C81.936 4.29685 81.3796 3.46844 80.6783 2.77089C79.977 2.07335 79.1445 1.52036 78.2284 1.14359C77.3123 0.766825 76.3307 0.573658 75.3396 0.57514Z" fill="#F6F6F6"/>
<path d="M66.883 56.4854C66.8852 58.0293 66.4277 59.5391 65.5683 60.8239C64.7088 62.1086 63.4861 63.1106 62.0548 63.703C60.6236 64.2953 59.0481 64.4515 57.5277 64.1516C56.0073 63.8518 54.6103 63.1095 53.5136 62.0186C52.4169 60.9277 51.6696 59.5372 51.3665 58.0232C51.0633 56.5091 51.2177 54.9396 51.8103 53.513C52.4029 52.0864 53.407 50.867 54.6956 50.009C55.9841 49.1511 57.4992 48.6931 59.049 48.6931C60.0773 48.6916 61.0957 48.8921 62.0461 49.283C62.9965 49.674 63.8602 50.2477 64.5878 50.9715C65.3154 51.6952 65.8926 52.5547 66.2865 53.5008C66.6803 54.447 66.883 55.4612 66.883 56.4854Z" fill="#F6F6F6"/>
<path d="M59.0491 64.5711C57.4442 64.5688 55.8759 64.0927 54.5426 63.2029C53.2092 62.3131 52.1706 61.0496 51.558 59.5719C50.9454 58.0943 50.7863 56.4689 51.1007 54.9013C51.4152 53.3336 52.1892 51.894 53.3248 50.7644C54.4604 49.6347 55.9068 48.8658 57.481 48.5547C59.0552 48.2436 60.6867 48.4044 62.1692 49.0167C63.6517 49.629 64.9188 50.6653 65.8102 51.9947C66.7016 53.3241 67.1774 54.8869 67.1774 56.4856C67.1774 57.5484 66.967 58.6006 66.5584 59.5823C66.1498 60.564 65.5509 61.4559 64.796 62.2069C64.041 62.9578 63.1449 63.5532 62.1588 63.9588C61.1727 64.3645 60.1159 64.5725 59.0491 64.5711ZM59.0491 48.9752C57.5583 48.9775 56.1017 49.4198 54.8634 50.2464C53.625 51.073 52.6604 52.2467 52.0914 53.6193C51.5225 54.9918 51.3748 56.5016 51.667 57.9577C51.9592 59.4138 52.6782 60.751 53.7331 61.8002C54.7879 62.8494 56.1314 63.5636 57.5936 63.8524C59.0559 64.1413 60.5712 63.9919 61.9483 63.4231C63.3253 62.8544 64.5022 61.8918 65.3301 60.6569C66.1581 59.4221 66.6 57.9705 66.6 56.4856C66.6 55.4984 66.4046 54.5208 66.025 53.6089C65.6454 52.6969 65.089 51.8685 64.3877 51.171C63.6864 50.4734 62.8539 49.9205 61.9378 49.5437C61.0218 49.1669 60.0401 48.9738 59.0491 48.9752Z" fill="#F6F6F6"/>
<path d="M99.1472 56.4854C99.1494 58.0293 98.6919 59.5391 97.8324 60.8239C96.973 62.1086 95.7503 63.1106 94.319 63.703C92.8877 64.2953 91.3122 64.4515 89.7918 64.1516C88.2714 63.8518 86.8745 63.1095 85.7778 62.0186C84.681 60.9277 83.9338 59.5372 83.6306 58.0232C83.3274 56.5091 83.4819 54.9396 84.0745 53.513C84.6671 52.0864 85.6712 50.867 86.9597 50.009C88.2482 49.1511 89.7633 48.6931 91.3132 48.6931C92.3414 48.6916 93.3599 48.8921 94.3103 49.283C95.2607 49.674 96.1244 50.2477 96.852 50.9715C97.5796 51.6952 98.1568 52.5547 98.5506 53.5008C98.9445 54.447 99.1472 55.4612 99.1472 56.4854Z" fill="#F6F6F6"/>
<path d="M91.3132 64.5709C89.7078 64.5709 88.1385 64.0967 86.8037 63.2082C85.4688 62.3198 84.4285 61.057 83.8141 59.5796C83.1997 58.1022 83.039 56.4765 83.3522 54.908C83.6654 53.3396 84.4385 51.8989 85.5736 50.7681C86.7088 49.6373 88.1551 48.8672 89.7297 48.5553C91.3042 48.2433 92.9363 48.4034 94.4195 49.0154C95.9026 49.6273 97.1703 50.6637 98.0622 51.9934C98.9541 53.323 99.4302 54.8863 99.4302 56.4854C99.4272 58.6289 98.571 60.6837 97.0495 62.1994C95.5279 63.7151 93.465 64.5679 91.3132 64.5709ZM91.3132 48.975C89.822 48.975 88.3643 49.4155 87.1244 50.2408C85.8845 51.066 84.9182 52.239 84.3475 53.6113C83.7769 54.9836 83.6275 56.4937 83.9185 57.9506C84.2094 59.4074 84.9275 60.7457 85.9819 61.796C87.0363 62.8463 88.3798 63.5616 89.8423 63.8514C91.3048 64.1412 92.8208 63.9925 94.1985 63.4241C95.5762 62.8556 96.7537 61.893 97.5822 60.6579C98.4106 59.4229 98.8528 57.9708 98.8528 56.4854C98.8498 54.4945 98.0545 52.5859 96.6412 51.1781C95.2279 49.7703 93.3119 48.978 91.3132 48.975Z" fill="#F6F6F6"/>
<path d="M91.3698 58.222C87.5547 58.222 83.4453 50.7568 81.8377 47.5654L81.6566 47.1933V18.3247L75.3736 10.7242L68.9321 18.336V47.2046L68.7396 47.5767C67.1094 50.7793 62.8981 58.222 59.0717 58.222C55.2453 58.222 51.0339 50.7793 49.4038 47.5767L49.2113 47.2046V17.7045H52.7094V46.3701C54.9736 50.6666 57.9509 54.6134 59.083 54.7375C60.2151 54.6134 63.1924 50.6665 65.4339 46.3588V17.0391L75.3962 5.25488L85.1547 17.0504V46.3701C87.3509 50.6553 90.283 54.6021 91.4151 54.7375C92.5472 54.6247 95.5811 50.6778 97.8792 46.3588V17.7045H101.377V47.2046L101.185 47.588C99.4981 50.7906 95.2075 58.222 91.3698 58.222Z" fill="#F6F6F6"/>
<path d="M15.3736 87.2259H9.18113V103.194H6.21509V87.2259H0V84.6436H15.3736V87.2259Z" fill="#F6F6F6"/>
<path d="M33.1585 84.6436V103.194H30.1924V95.0069H20.7962V103.194H17.8641V84.6436H20.7962V92.402H30.1924V84.6436H33.1585Z" fill="#F6F6F6"/>
<path d="M37.3585 103.194V84.6436H45.4642C46.2486 84.6432 47.0228 84.8207 47.7283 85.1623C48.4197 85.4988 49.0387 85.966 49.5509 86.538C50.0413 87.108 50.4248 87.7612 50.683 88.4664C50.9759 89.1821 51.1222 89.9489 51.1132 90.7218C51.1167 91.9217 50.7706 93.0969 50.117 94.1048C49.8158 94.5878 49.4327 95.0152 48.9849 95.3678C48.5419 95.7261 48.0349 95.9977 47.4906 96.1684L51.8717 103.228H48.5434L44.5925 96.7661H40.2906V103.228L37.3585 103.194ZM40.2906 94.1725H45.4302C45.8241 94.1762 46.2129 94.0832 46.5623 93.9018C46.9067 93.7098 47.2074 93.4487 47.4453 93.135C47.6953 92.7912 47.89 92.4108 48.0226 92.0073C48.1607 91.5773 48.2295 91.1281 48.2264 90.6766C48.2312 90.2211 48.1466 89.7691 47.9774 89.346C47.8222 88.9367 47.6003 88.5557 47.3208 88.2183C47.059 87.9118 46.7398 87.6591 46.3811 87.474C46.0307 87.2956 45.6426 87.2028 45.2491 87.2034H40.2679L40.2906 94.1725Z" fill="#F6F6F6"/>
<path d="M67.4717 100.6V103.194H54.6679V84.6436H67.234V87.2259H57.634V92.5034H65.9887V94.9393H57.6793V100.578L67.4717 100.6Z" fill="#F6F6F6"/>
<path d="M77.8528 103.318C76.5969 103.335 75.3537 103.065 74.2189 102.529C73.1504 102.01 72.193 101.29 71.4 100.409C69.8148 98.6134 68.9414 96.3039 68.9434 93.9131C68.9387 92.6966 69.1693 91.4906 69.6227 90.361C70.0592 89.2574 70.692 88.2412 71.4906 87.3613C72.2912 86.487 73.2567 85.7782 74.3321 85.2751C75.453 84.7593 76.6747 84.4975 77.9094 84.5083C79.1692 84.4911 80.415 84.7732 81.5434 85.3315C82.6114 85.86 83.5652 86.5918 84.3509 87.4854C85.1315 88.3767 85.745 89.4003 86.1623 90.5076C86.5816 91.5869 86.8002 92.7333 86.8075 93.8906C86.8082 95.1057 86.5817 96.3103 86.1396 97.4428C85.7032 98.5456 85.0661 99.5587 84.2604 100.431C83.4496 101.293 82.4814 101.994 81.4075 102.495C80.3006 103.034 79.0851 103.316 77.8528 103.318ZM71.9321 93.9131C71.9293 94.7762 72.0708 95.6337 72.3509 96.4504C72.5934 97.2345 72.977 97.9682 73.483 98.6156C73.9997 99.2414 74.6392 99.7556 75.3623 100.127C76.1287 100.505 76.975 100.694 77.8302 100.679C78.7006 100.698 79.5614 100.496 80.3321 100.093C81.0492 99.7077 81.6777 99.1777 82.1774 98.5366C82.6811 97.8878 83.0645 97.1546 83.3094 96.3715C83.8549 94.7468 83.8549 92.9894 83.3094 91.3646C83.0611 90.5898 82.6779 89.8646 82.1774 89.222C81.6616 88.6057 81.0262 88.0995 80.3094 87.7335C79.5596 87.3529 78.7283 87.1594 77.8868 87.1696C77.0098 87.1562 76.1429 87.3576 75.3623 87.756C74.6452 88.1363 74.0135 88.6581 73.5057 89.2897C73.0023 89.9346 72.6189 90.6641 72.3736 91.4436C72.0929 92.2375 71.9438 93.0715 71.9321 93.9131Z" fill="#F6F6F6"/>
<path d="M92.7849 90.1241V103.194H89.8415V84.6436H92.1057L102.758 98.0178V84.6661H105.725V103.194H103.347L92.7849 90.1241Z" fill="#F6F6F6"/>
<path d="M109.97 103.194V84.6436H112.902V103.194H109.97Z" fill="#F6F6F6"/>
<path d="M120.045 90.1241V103.194H117.102V84.6436H119.366L130.019 98.0178V84.6661H132.985V103.194H130.54L120.045 90.1241Z" fill="#F6F6F6"/>
<path d="M150 100.6V103.194H137.219V84.6436H149.762V87.2259H140.162V92.5034H148.483V94.9393H140.162V100.578L150 100.6Z" fill="#F6F6F6"/>
<path d="M67.6641 79.9187H54.7585V82.5349H67.6641V79.9187Z" fill="#F6F6F6"/>
</g>
<defs>
<clipPath id="clip0_63_2">
<rect width="150" height="121" fill="white"/>
</clipPath>
</defs>
</svg>
