<svg width="231" height="70" viewBox="0 0 231 70" fill="none" xmlns="http://www.w3.org/2000/svg">
<g clip-path="url(#clip0_41_2)">
<path d="M91.2837 32.3028H84.868V49.3985H81.7943V32.3028H75.3261V29.5305H91.2837V32.3028Z" fill="#4A4A49"/>
<path d="M109.738 29.5305V49.3985H106.664V40.6427H96.9178V49.3985H93.8674V29.5305H96.9178V37.8416H106.664V29.5305H109.738Z" fill="#4A4A49"/>
<path d="M114.094 49.3985V29.5305H122.534C123.372 29.5299 124.198 29.7279 124.943 30.1081C125.663 30.4724 126.305 30.9727 126.832 31.5808C127.363 32.1935 127.781 32.8933 128.069 33.6485C128.366 34.4013 128.518 35.2025 128.518 36.0107C128.528 37.2958 128.17 38.5574 127.486 39.6493C127.167 40.1654 126.763 40.6244 126.29 41.0066C125.831 41.3847 125.305 41.6746 124.739 41.8614L129.282 49.4158H125.8L121.612 42.4851H117.145V49.4158L114.094 49.3985ZM117.145 39.7129H122.481C122.889 39.7153 123.291 39.6139 123.648 39.4183C124.007 39.2178 124.318 38.9418 124.558 38.6097C124.815 38.2464 125.012 37.8447 125.141 37.42C125.289 36.9567 125.361 36.4733 125.357 35.9876C125.361 35.5004 125.274 35.0167 125.1 34.5611C124.936 34.1427 124.706 33.7528 124.418 33.4059C124.148 33.0788 123.815 32.8079 123.438 32.6089C123.08 32.4155 122.679 32.3142 122.271 32.3144H117.098L117.145 39.7129Z" fill="#4A4A49"/>
<path d="M145.35 46.6436V49.41H132.093V29.5421H145.106V32.3144H135.138V37.9802H143.77V40.5792H135.138V46.6436H145.35Z" fill="#4A4A49"/>
<path d="M156.129 49.5314C154.822 49.5458 153.531 49.2529 152.361 48.6766C151.247 48.1178 150.256 47.3464 149.445 46.4068C148.621 45.454 147.981 44.3597 147.555 43.1782C147.111 41.9856 146.884 40.7243 146.884 39.453C146.882 38.1522 147.121 36.8621 147.59 35.6469C148.044 34.4698 148.703 33.3809 149.538 32.4299C150.353 31.5057 151.344 30.75 152.454 30.2063C153.614 29.6511 154.887 29.3685 156.175 29.3804C157.486 29.3643 158.78 29.6678 159.943 30.264C161.06 30.8359 162.051 31.6211 162.859 32.5743C163.673 33.5357 164.31 34.6302 164.743 35.8086C165.645 38.2334 165.635 40.8989 164.714 43.3168C164.272 44.496 163.611 45.5831 162.766 46.5223C161.936 47.4411 160.934 48.1923 159.815 48.7343C158.664 49.2761 157.403 49.5488 156.129 49.5314ZM149.976 39.453C149.974 40.3752 150.121 41.2917 150.413 42.1675C150.686 43.0029 151.105 43.7847 151.65 44.4777C152.176 45.1459 152.84 45.6952 153.598 46.0891C154.39 46.4871 155.27 46.6854 156.158 46.6667C157.066 46.6854 157.963 46.4684 158.759 46.0371C159.507 45.618 160.16 45.052 160.678 44.3738C161.205 43.6759 161.609 42.8948 161.874 42.0635C162.146 41.2116 162.283 40.3233 162.282 39.4299C162.286 38.5038 162.138 37.5832 161.845 36.7038C161.579 35.8651 161.16 35.082 160.608 34.3936C160.08 33.7367 159.424 33.1926 158.678 32.7938C157.884 32.3894 157.004 32.1785 156.111 32.1785C155.219 32.1785 154.339 32.3894 153.545 32.7938C152.794 33.2044 152.135 33.7625 151.609 34.434C151.072 35.1275 150.663 35.9096 150.401 36.7442C150.111 37.6221 149.967 38.5409 149.976 39.4645V39.453Z" fill="#4A4A49"/>
<path d="M171.62 35.41V49.3985H168.569V29.5305H170.943L182.025 43.8597V29.5594H185.104V49.3985H182.573L171.62 35.41Z" fill="#4A4A49"/>
<path d="M189.455 49.3985V29.5305H192.523V49.3985H189.455Z" fill="#4A4A49"/>
<path d="M199.907 35.41V49.3985H196.857V29.5305H199.254L210.306 43.8597V29.5594H213.38V49.3985H210.849L199.907 35.41Z" fill="#4A4A49"/>
<path d="M231.018 46.6436V49.41H217.737V29.5421H230.749V32.3144H220.787V37.9802H229.419V40.5792H220.787V46.6436H231.018Z" fill="#4A4A49"/>
<path d="M145.251 24.5982H132.093V27.2896H145.251V24.5982Z" fill="#4A4A49"/>
<path d="M32.7142 16.1197C31.4935 16.7441 30.1396 17.07 28.7656 17.07C27.3917 17.07 26.0377 16.7441 24.8171 16.1197L28.7948 11.4414L32.7142 16.1197ZM28.824 5.46371L35.6304 13.6766C36.5959 12.4133 37.187 10.9087 37.3376 9.33142C37.4881 7.75415 37.1921 6.16655 36.4828 4.74649C35.7734 3.32643 34.6787 2.13004 33.3213 1.2914C31.964 0.452758 30.3976 0.0049804 28.7977 -0.00172413C27.1978 -0.00842865 25.6277 0.426199 24.2632 1.25343C22.8987 2.08067 21.7938 3.26785 21.0724 4.68191C20.3509 6.09597 20.0413 7.68104 20.1784 9.25951C20.3155 10.838 20.8937 12.3475 21.8483 13.6188L28.824 5.46371Z" fill="#E1E157"/>
<path d="M6.15909 54.3193C7.55563 53.4202 9.18558 52.9417 10.8513 52.9417C12.517 52.9417 14.147 53.4202 15.5435 54.3193L15.1061 54.9835C12.1607 59.3614 10.8484 59.5635 10.8659 59.5635C10.8834 59.5635 9.53608 59.3614 6.59653 54.9835C6.46821 54.7583 6.3049 54.5388 6.15909 54.3193ZM18.2148 57.2071C15.3744 61.4002 13.0356 63.3523 10.8484 63.3523C8.66121 63.3523 6.3224 61.4002 3.48199 57.2071L3.4295 57.132C2.65963 58.4277 2.24922 59.9019 2.23985 61.4053C2.23048 62.9086 2.62248 64.3877 3.37616 65.6928C4.12983 66.9978 5.2184 68.0824 6.53161 68.8368C7.84483 69.5912 9.33604 69.9884 10.8542 69.9884C12.3724 69.9884 13.8636 69.5912 15.1768 68.8368C16.49 68.0824 17.5786 66.9978 18.3323 65.6928C19.0859 64.3877 19.4779 62.9086 19.4686 61.4053C19.4592 59.9019 19.0488 58.4277 18.2789 57.132L18.2148 57.2071Z" fill="#E1E157"/>
<path d="M53.8393 57.2533C54.5874 58.5597 54.9737 60.0387 54.959 61.5405C54.9444 63.0423 54.5293 64.5136 53.7559 65.8055C52.9824 67.0974 51.8781 68.164 50.5545 68.8974C49.231 69.6308 47.7353 70.0049 46.2188 69.9819C44.7024 69.9589 43.2189 69.5395 41.9187 68.7663C40.6185 67.9931 39.5477 66.8935 38.8146 65.5787C38.0815 64.264 37.7121 62.7808 37.7439 61.2793C37.7757 59.7777 38.2076 58.3112 38.9958 57.028L39.1066 57.1955C41.8945 61.3886 44.2041 63.3523 46.3855 63.3696H46.4146C48.6018 63.3927 50.9639 61.4233 53.8393 57.2533ZM42.2386 54.9777C45.1198 59.344 46.4205 59.5577 46.4321 59.5635C46.4438 59.5693 47.7386 59.3729 50.7481 54.9835L51.1506 54.4059C49.7668 53.4877 48.1438 52.9864 46.4783 52.9628C44.8127 52.9393 43.1759 53.3944 41.7662 54.2731L42.2386 54.9777Z" fill="#E1E157"/>
<path d="M53.8394 57.2533C50.964 61.4233 48.5902 63.3697 46.4147 63.3697H46.3855C44.2042 63.3697 41.8945 61.3886 39.1066 57.1956L38.9958 57.0281C39.6896 55.9021 40.638 54.9511 41.7662 54.25L42.2386 54.9777C45.1199 59.3441 46.4205 59.5578 46.4322 59.5635C46.4438 59.5693 47.7386 59.3729 50.7482 54.9835L51.1506 54.406C52.256 55.1378 53.176 56.1122 53.8394 57.2533ZM18.2148 57.2533L18.2789 57.1609C17.5959 56.0273 16.6602 55.0633 15.5435 54.3424L15.1061 55.0066C12.1607 59.3845 10.8484 59.5866 10.8659 59.5866C10.8834 59.5866 9.53608 59.3845 6.59652 55.0066C6.44488 54.7871 6.3049 54.5677 6.15909 54.3482C5.04209 55.0718 4.10814 56.0401 3.4295 57.1782L3.48199 57.2533C6.3224 61.4464 8.66121 63.3985 10.8484 63.3985C13.0356 63.3985 15.3744 61.4175 18.2148 57.2244V57.2533ZM21.8717 13.6477C22.647 14.6753 23.643 15.5196 24.7879 16.1197L28.7657 11.4414L32.6851 16.1485C33.8406 15.5625 34.849 14.7277 35.6363 13.7054L28.8123 5.46371L21.8717 13.6477Z" fill="#089DC0"/>
<path d="M3.42948 57.1493C2.25643 55.3996 1.18163 53.5871 0.209964 51.7203L0 51.316V19.0421H3.84942V50.3919C4.22853 51.0965 5.0859 52.6617 6.1824 54.3193C5.0569 55.0401 4.11477 56.0086 3.42948 57.1493ZM21.8717 13.6188L17.8531 18.3432V50.3919C17.474 51.0965 16.6108 52.6559 15.5201 54.3135C16.6369 55.0344 17.5725 55.9984 18.2556 57.132C19.4208 55.3845 20.4935 53.5781 21.4692 51.7203L21.6792 51.316V19.7351L24.7821 16.0907C23.6393 15.49 22.6453 14.6458 21.8717 13.6188ZM41.7662 54.25C40.7397 52.6155 39.9115 51.0907 39.5498 50.3977V18.3432L35.6538 13.665C34.8665 14.6873 33.8581 15.5221 32.7025 16.1081L35.7004 19.712V51.2929L35.9046 51.6914C36.8386 53.5196 37.8705 55.2972 38.9958 57.0165C39.691 55.8948 40.6393 54.9478 41.7662 54.25ZM53.5536 19.019V50.3572C53.1628 51.0792 52.2587 52.6675 51.1506 54.3597C52.2606 55.1031 53.1811 56.0916 53.8393 57.2475C55.0506 55.4705 56.1661 53.6313 57.1813 51.7376L57.3971 51.3218V19.0421L53.5536 19.019Z" fill="#089DC0"/>
</g>
<defs>
<clipPath id="clip0_41_2">
<rect width="231" height="70" fill="white"/>
</clipPath>
</defs>
</svg>
